<svg xmlns="http://www.w3.org/2000/svg" xmlns:xlink="http://www.w3.org/1999/xlink" viewBox="0 0 39.69 163.61"><defs><style>.cls-1,.cls-13,.cls-16,.cls-19,.cls-22{fill:none;}.cls-2{fill:#f2f2f2;}.cls-3{clip-path:url(#clip-path);}.cls-22,.cls-4{opacity:0.07;}.cls-5{clip-path:url(#clip-path-2);}.cls-6{fill:#eeac9c;}.cls-7{clip-path:url(#clip-path-3);}.cls-8{fill:#ff9b00;}.cls-9{fill:#404040;}.cls-10{clip-path:url(#clip-path-4);}.cls-11{opacity:0.15;}.cls-12{clip-path:url(#clip-path-5);}.cls-13{stroke:#404040;stroke-width:1.84px;}.cls-13,.cls-16,.cls-22{stroke-linecap:round;stroke-linejoin:round;}.cls-14{fill:#fff;}.cls-15{clip-path:url(#clip-path-6);}.cls-16,.cls-19{stroke:#fff;}.cls-16{stroke-width:0.79px;}.cls-17{fill:#09f;}.cls-18{clip-path:url(#clip-path-7);}.cls-19{stroke-miterlimit:10;stroke-width:1.18px;}.cls-20{clip-path:url(#clip-path-9);}.cls-21{fill:#990ae3;}.cls-22{stroke:#000;stroke-width:0.78px;}.cls-23{fill:#e22365;}.cls-24{fill:#e95a8b;}.cls-25{fill:#a0a0a0;}</style><clipPath id="clip-path"><path class="cls-1" d="M15.38,158.62a2.33,2.33,0,0,1-2.33-2.25l-.24-6.9a2.33,2.33,0,1,1,4.66-.16l.24,6.9a2.32,2.32,0,0,1-2.25,2.41Z"/></clipPath><clipPath id="clip-path-2"><path class="cls-1" d="M24.08,158.62H24a2.33,2.33,0,0,1-2.25-2.41l.24-6.9a2.34,2.34,0,0,1,4.67.16l-.24,6.9A2.34,2.34,0,0,1,24.08,158.62Z"/></clipPath><clipPath id="clip-path-3"><path class="cls-1" d="M21.77,41.21H17.91a.68.68,0,0,0-.67.79c.17,1.15.48,3.26.48,4.13s-.31,3-.48,4.14a.67.67,0,0,0,.67.78h3.86a.68.68,0,0,0,.68-.76c-.14-1.15-.4-3.28-.4-4.16s.26-3,.4-4.15A.69.69,0,0,0,21.77,41.21Z"/></clipPath><clipPath id="clip-path-4"><path class="cls-1" d="M19.84,43.42A15.32,15.32,0,1,1,35.16,28.1,15.34,15.34,0,0,1,19.84,43.42Z"/></clipPath><clipPath id="clip-path-5"><rect class="cls-1" x="1.62" y="22.98" width="36.45" height="10.24" rx="2.91" ry="2.91"/></clipPath><clipPath id="clip-path-6"><path class="cls-1" d="M7.29,32.1a2,2,0,0,1-.09-.22l-.78-1.83c0-.05,0-.09,0-.13-1.82-4.72-2.74-9.83-2.29-13.8A9.74,9.74,0,0,1,5.83,11.2,9.37,9.37,0,0,1,7.48,9.58c6.69-5.12,21.22-3,26.68,4.15a6.49,6.49,0,0,1,.66,1.08s0,0,0,0l.26.62,0,0c3.15,8.61-6.77,27.39-15.35,27.89C14.83,43.7,10.24,38.51,7.29,32.1Z"/></clipPath><clipPath id="clip-path-7"><path class="cls-1" d="M5.58,102.11a2,2,0,0,0,2-1.76c0-.36,3.89-36.23,12.06-48.23a2,2,0,1,0-3.26-2.22C7.62,62.72,3.78,98.42,3.62,99.94a2,2,0,0,0,1.76,2.16Z"/></clipPath><clipPath id="clip-path-9"><path class="cls-1" d="M34.1,102.11a2,2,0,0,1-2-1.76c0-.36-3.88-36.23-12-48.23a2,2,0,1,1,3.25-2.22c8.73,12.82,12.56,48.52,12.72,50a2,2,0,0,1-1.75,2.16Z"/></clipPath></defs><title>Asset 2</title><g id="Layer_2" data-name="Layer 2"><g id="Neck"><path class="cls-2" d="M15.38,158.62a2.33,2.33,0,0,1-2.33-2.25l-.24-6.9a2.33,2.33,0,1,1,4.66-.16l.24,6.9a2.32,2.32,0,0,1-2.25,2.41Z"/><path class="cls-2" d="M24.08,158.62H24a2.33,2.33,0,0,1-2.25-2.41l.24-6.9a2.34,2.34,0,0,1,4.67.16l-.24,6.9A2.34,2.34,0,0,1,24.08,158.62Z"/><path d="M25.06,154.1a3.62,3.62,0,0,1-.46,0,4.28,4.28,0,0,1-3.8-4.7c.05-.4,4.17-39.89.06-59.25a4.28,4.28,0,0,1,8.37-1.78c4.38,20.7.25,60.26.08,61.93A4.28,4.28,0,0,1,25.06,154.1Z"/><path d="M14.42,154.1a4.28,4.28,0,0,1-4.25-3.82c-.18-1.67-4.3-41.23.08-61.93a4.28,4.28,0,0,1,8.37,1.78c-4.11,19.38,0,58.85.06,59.25a4.28,4.28,0,0,1-3.8,4.7A3.62,3.62,0,0,1,14.42,154.1Z"/><path d="M14.4,96.14a6.5,6.5,0,0,1-1.71-.91,5.65,5.65,0,0,1-1-.92,5.6,5.6,0,0,1-1.06-2.83,12.66,12.66,0,0,1-.07-2,20.18,20.18,0,0,1,1.18-5.77l.33-.88.22-.52a.69.69,0,0,1,0-.13c1.65-3.73,4.25-6.76,7.12-6.63,4.85.23,10.6,10.54,9.24,15.68l-.27.69-.12.29a3.54,3.54,0,0,1-.26.41C25.39,96.3,18.67,97.77,14.4,96.14Z"/><g class="cls-3"><g class="cls-4"><path d="M14.44,85a3.77,3.77,0,0,1,.88.1,4.28,4.28,0,0,1,3.3,5.07c-4.11,19.38,0,58.85.06,59.25a4.28,4.28,0,0,1-3.8,4.7,3.62,3.62,0,0,1-.46,0,4.28,4.28,0,0,1-4.25-3.82c-.18-1.68-4.3-41.23.08-61.93A4.29,4.29,0,0,1,14.44,85m0-1.55h0A5.86,5.86,0,0,0,8.73,88c-4.44,21-.28,60.73-.1,62.41a5.81,5.81,0,0,0,5.79,5.22,4.21,4.21,0,0,0,.62,0,5.82,5.82,0,0,0,5.18-6.41c0-.39-4.11-39.73-.08-58.76a5.84,5.84,0,0,0-4.49-6.92,6.21,6.21,0,0,0-1.21-.12Z"/></g></g><g class="cls-5"><g class="cls-4"><path d="M25.05,85a4.29,4.29,0,0,1,4.18,3.39c4.38,20.7.26,60.26.08,61.93a4.28,4.28,0,0,1-4.25,3.82,3.62,3.62,0,0,1-.46,0,4.28,4.28,0,0,1-3.8-4.7c.05-.4,4.17-39.89.06-59.25a4.28,4.28,0,0,1,3.3-5.07,3.8,3.8,0,0,1,.89-.1m0-1.55h0a5.56,5.56,0,0,0-1.22.13,5.81,5.81,0,0,0-4.49,6.91c4,19,0,58.37-.08,58.76a5.82,5.82,0,0,0,5.18,6.41,4.21,4.21,0,0,0,.62,0,5.81,5.81,0,0,0,5.79-5.22C31,148.76,35.19,109,30.75,88a5.86,5.86,0,0,0-5.7-4.62Z"/></g></g><ellipse class="cls-4" cx="19.84" cy="161.52" rx="19.84" ry="2.09"/><path class="cls-6" d="M21.77,41.21H17.91a.68.68,0,0,0-.67.79c.17,1.15.48,3.26.48,4.13s-.31,3-.48,4.14a.67.67,0,0,0,.67.78h3.86a.68.68,0,0,0,.68-.76c-.14-1.15-.4-3.28-.4-4.16s.26-3,.4-4.15A.69.69,0,0,0,21.77,41.21Z"/><path class="cls-4" d="M19.84,51.05h1.93a.68.68,0,0,0,.68-.76c-.14-1.15-.4-3.28-.4-4.16s.26-3,.4-4.15a.69.69,0,0,0-.68-.77H19.84Z"/><g class="cls-7"><g class="cls-4"><path d="M19.84,12.78A15.32,15.32,0,1,1,4.52,28.1,15.33,15.33,0,0,1,19.84,12.78m0-1.55A16.88,16.88,0,1,0,36.72,28.1,16.89,16.89,0,0,0,19.84,11.23Z"/></g></g><path class="cls-8" d="M7.29,32.1a2,2,0,0,1-.09-.22l-.78-1.83c0-.05,0-.09,0-.13-1.82-4.72-2.74-9.83-2.29-13.8A9.74,9.74,0,0,1,5.83,11.2,9.37,9.37,0,0,1,7.48,9.58c6.69-5.12,21.22-3,26.68,4.15a6.49,6.49,0,0,1,.66,1.08s0,0,0,0l.26.62,0,0c3.15,8.61-6.77,27.39-15.35,27.89C14.83,43.7,10.24,38.51,7.29,32.1Z"/><rect class="cls-9" x="1.62" y="22.98" width="36.45" height="10.24" rx="2.91" ry="2.91"/><path class="cls-6" d="M19.84,43.42A15.32,15.32,0,1,1,35.16,28.1,15.34,15.34,0,0,1,19.84,43.42Z"/><circle cx="19.3" cy="38.85" r="2.34"/><g class="cls-10"><path d="M17.78,39.66H7.59a.82.82,0,1,1,0-1.62H17.78a.82.82,0,1,1,0,1.62Z"/></g><circle cx="14.8" cy="28.1" r="1.3"/><circle cx="24.89" cy="28.1" r="1.3"/><circle class="cls-11" cx="19.84" cy="32.59" r="1.95"/><circle class="cls-6" cx="19.84" cy="31.49" r="1.95"/><g class="cls-4"><path d="M6.62,20.38a4.26,4.26,0,0,0,.22,1.29,3,3,0,0,0,.66,1.07,3.52,3.52,0,0,0,.5.36,3,3,0,0,0,.57.22,3.23,3.23,0,0,0,.61.1h.63l.63-.1a2.63,2.63,0,0,0,.62-.13l.62-.18a4.44,4.44,0,0,0,.61-.22,11.19,11.19,0,0,0,1.2-.49l1.18-.55.16-.08.17.08a5.87,5.87,0,0,0,.95.33,8.89,8.89,0,0,0,1,.19,16.47,16.47,0,0,0,2.11.08l1.06-.09,1.06-.18c.35-.07.69-.17,1-.25a9.21,9.21,0,0,0,1-.31c.34-.12.69-.21,1-.35l1-.4c.66-.27,1.3-.62,2-.93l1.9-1.06L31,17.63c-.56.47-1.14.92-1.71,1.37s-1.21.84-1.83,1.23-1.27.75-1.94,1.06l-1,.48a9.25,9.25,0,0,1-1,.39,9.39,9.39,0,0,1-1.06.35c-.36.09-.71.2-1.08.28l-1.1.21-1.12.11A10.6,10.6,0,0,1,16.88,23a8.56,8.56,0,0,1-1.12-.23,5.69,5.69,0,0,1-1.1-.41H15l-1.23.55c-.4.2-.84.32-1.26.48-.22.06-.42.15-.65.19l-.66.15a3.85,3.85,0,0,1-.68.1l-.68.06-.7-.05a4.18,4.18,0,0,1-.68-.16,3.11,3.11,0,0,1-.64-.3,3.87,3.87,0,0,1-.52-.47,2.58,2.58,0,0,1-.37-.58,3.33,3.33,0,0,1-.24-.64A3.79,3.79,0,0,1,6.62,20.38Z"/></g><g class="cls-12"><g class="cls-4"><path d="M19.84,12.78A15.32,15.32,0,1,1,4.52,28.1,15.33,15.33,0,0,1,19.84,12.78m0-.77A16.1,16.1,0,1,0,35.94,28.1,16.11,16.11,0,0,0,19.84,12Z"/></g></g><path class="cls-13" d="M5.43,31.92c0-.08-.07-.16-.1-.25l-.9-2.1a.58.58,0,0,0,0-.14C2.29,24,1.23,18.14,1.75,13.58a11.13,11.13,0,0,1,2-5.65,10.8,10.8,0,0,1,1.9-1.86C13.34.2,30,2.6,36.28,10.84A7.76,7.76,0,0,1,37,12.08s0,0,0,0l.3.72,0,.05a16,16,0,0,1,.38,7.9"/><g class="cls-11"><path class="cls-14" d="M2.6,23.89a.19.19,0,0,1-.19-.15,30.43,30.43,0,0,1-.85-10.18A11.17,11.17,0,0,1,3.61,7.81,10.49,10.49,0,0,1,5.54,5.92C9.09,3.2,14.88,2.07,21,2.9c6.6.88,12.36,3.81,15.42,7.82A8.23,8.23,0,0,1,37.21,12a.11.11,0,0,1,0,.06l.3.71,0,.06a16.22,16.22,0,0,1,.39,8,.19.19,0,0,1-.22.16.19.19,0,0,1-.16-.22A15.89,15.89,0,0,0,37.2,13l-.31-.76a.09.09,0,0,1,0,0,8.33,8.33,0,0,0-.73-1.2C33.14,7,27.47,4.16,21,3.28c-6-.81-11.72.29-15.2,3A10.7,10.7,0,0,0,3.91,8.05a10.92,10.92,0,0,0-2,5.55,30.21,30.21,0,0,0,.85,10,.19.19,0,0,1-.15.23Z"/></g><path class="cls-4" d="M19.84,12.78a15.32,15.32,0,0,1,0,30.64Z"/><g class="cls-15"><path class="cls-8" d="M12.82,10.93s0-.1,0-.15l.38-1.22s0-.05,0-.08a20,20,0,0,1,4.66-7.7A6.16,6.16,0,0,1,20.85.11,5.7,5.7,0,0,1,22.34,0C27.75.31,34,7.4,33.63,13.2a3.81,3.81,0,0,1-.13.8v0l-.14.41v0C31.28,20,18.59,25,14.19,21.68,11.65,19.75,11.58,15.3,12.82,10.93Z"/><path class="cls-8" d="M7,17.75s0-.05,0-.08l.2-.61s0,0,0,0a10,10,0,0,1,2.34-3.86A3.1,3.1,0,0,1,11,12.32a3,3,0,0,1,.74-.05c2.71.15,5.84,3.71,5.67,6.61a2,2,0,0,1-.07.41h0l-.07.21h0c-1,2.77-7.41,5.29-9.62,3.62C6.42,22.17,6.38,19.94,7,17.75Z"/></g><line class="cls-16" x1="17.34" y1="55.37" x2="22.46" y2="55.37"/><path class="cls-6" d="M6.5,99.88a1.56,1.56,0,0,1,.34.18l.19.18a1.13,1.13,0,0,1,.21.56,2.47,2.47,0,0,1,0,.39A4,4,0,0,1,7,102.32l-.07.17,0,.1v0c-.32.73-.83,1.33-1.4,1.3-1,0-2.08-2.07-1.81-3.08l.05-.13,0-.06a.35.35,0,0,1,0-.08A2.57,2.57,0,0,1,6.5,99.88Z"/><path class="cls-6" d="M7.62,103.1a.58.58,0,0,1-.54-.34l-.73-1.61a.58.58,0,0,1,.29-.78.59.59,0,0,1,.78.29l.74,1.61a.59.59,0,0,1-.3.78A.52.52,0,0,1,7.62,103.1Z"/><path class="cls-17" d="M5.58,102.11a2,2,0,0,0,2-1.76c0-.36,3.89-36.23,12.06-48.23a2,2,0,1,0-3.26-2.22C7.62,62.72,3.78,98.42,3.62,99.94a2,2,0,0,0,1.76,2.16Z"/><g class="cls-18"><line class="cls-19" x1="8.8" y1="97.54" x2="2.1" y2="97.54"/></g><g class="cls-18"><g class="cls-4"><path d="M7.91,103.36a2,2,0,0,0,2-1.76c0-.36,3.89-36.23,12.05-48.23a2,2,0,1,0-3.25-2.21C9.94,64,6.11,99.68,6,101.19a2,2,0,0,0,1.75,2.16Z"/></g></g><path class="cls-6" d="M33.18,99.88a1.74,1.74,0,0,0-.33.18,1.66,1.66,0,0,0-.19.18,1.17,1.17,0,0,0-.21.56,1.67,1.67,0,0,0,0,.39,3.67,3.67,0,0,0,.23,1.13l.06.17,0,.1,0,0c.32.73.83,1.33,1.39,1.3,1,0,2.08-2.07,1.82-3.08l-.06-.13a.14.14,0,0,0,0-.06l-.05-.08A2.59,2.59,0,0,0,33.18,99.88Z"/><path class="cls-6" d="M32.07,103.1a.56.56,0,0,1-.25,0,.59.59,0,0,1-.29-.78l.73-1.61a.59.59,0,0,1,1.08.49l-.74,1.61A.57.57,0,0,1,32.07,103.1Z"/><path class="cls-17" d="M34.1,102.11a2,2,0,0,1-2-1.76c0-.36-3.88-36.23-12-48.23a2,2,0,1,1,3.25-2.22c8.73,12.82,12.56,48.52,12.72,50a2,2,0,0,1-1.75,2.16Z"/><g class="cls-20"><line class="cls-19" x1="30.89" y1="97.54" x2="37.58" y2="97.54"/></g><g class="cls-20"><g class="cls-4"><path d="M31.77,103.36a2,2,0,0,1-1.95-1.76c0-.36-3.89-36.22-12.06-48.23A2,2,0,1,1,21,51.16c8.72,12.82,12.56,48.52,12.72,50A2,2,0,0,1,32,103.35Z"/></g></g><path class="cls-17" d="M23,50.69a2.24,2.24,0,0,0-2.19-1.82H18.93a2.24,2.24,0,0,0-2.21,1.82L9.6,88.93H30.09Z"/><polygon class="cls-21" points="21.56 60.8 18.21 60.8 17.42 49.31 22.35 49.31 21.56 60.8"/><line class="cls-16" x1="17.34" y1="57.07" x2="22.46" y2="57.07"/><line class="cls-16" x1="17.33" y1="55.75" x2="22.44" y2="55.75"/><line class="cls-16" x1="17.33" y1="54.43" x2="22.44" y2="54.43"/><line class="cls-16" x1="17.34" y1="58.4" x2="22.46" y2="58.4"/><line class="cls-16" x1="17.33" y1="59.72" x2="22.44" y2="59.72"/><line class="cls-22" x1="17.46" y1="49.87" x2="18.21" y2="60.56"/><line class="cls-22" x1="21.56" y1="60.56" x2="22.32" y2="49.77"/><path class="cls-17" d="M23,50.37a2.23,2.23,0,0,0-.67-1.23l-.78,11.42H18.21l-.8-11.44a2.19,2.19,0,0,0-.69,1.24L9.6,88.93H30.09Z"/><path class="cls-4" d="M19.84,88.91H30.09L23,50.35a2.23,2.23,0,0,0-.67-1.23l-.78,11.42H19.84Z"/><g class="cls-4"><path d="M19.68,63.65a0,0,0,0,1,0,0l-.1.25v0a4.19,4.19,0,0,1-1.1,1.55,1.36,1.36,0,0,1-.64.31,1.16,1.16,0,0,1-.32,0,3,3,0,0,1-2.18-3c0-.05,0-.11,0-.16h0l0-.09h0c.53-1.14,3.29-2,4.16-1.22C20.07,61.8,20,62.74,19.68,63.65Z"/><path d="M20.19,63.65a0,0,0,0,1,0,0l.1.25v0a4.21,4.21,0,0,0,1.11,1.55,1.36,1.36,0,0,0,.64.31,1.08,1.08,0,0,0,.31,0,3,3,0,0,0,2.18-3,.94.94,0,0,0,0-.16h0l0-.09h0c-.52-1.14-3.28-2-4.16-1.22C19.81,61.8,19.86,62.74,20.19,63.65Z"/><path d="M18.69,62.13v0l-.07-.17h0a2.82,2.82,0,0,1-.21-1.23.83.83,0,0,1,.16-.44.67.67,0,0,1,.15-.14,2,2,0,0,1,2.38.36l.06.09h0l0,.05h0c.29.77-.59,2.44-1.36,2.49C19.37,63.16,19,62.7,18.69,62.13Z"/></g><path class="cls-23" d="M19.69,63.2a0,0,0,0,1,0,0l-.09.24v0A4,4,0,0,1,18.52,65a1.24,1.24,0,0,1-.61.3,1,1,0,0,1-.3,0,2.85,2.85,0,0,1-2.08-2.83.9.9,0,0,1,0-.16h0l0-.09h0c.5-1.09,3.14-1.91,4-1.17C20.06,61.44,20,62.34,19.69,63.2Z"/><path class="cls-23" d="M20.18,63.2v0l.1.24v0A4,4,0,0,0,21.35,65a1.23,1.23,0,0,0,.62.3,1,1,0,0,0,.3,0,2.87,2.87,0,0,0,2.08-2.83.94.94,0,0,0,0-.16h0l0-.09h0c-.51-1.09-3.15-1.91-4-1.17C19.81,61.44,19.86,62.34,20.18,63.2Z"/><path class="cls-24" d="M18.75,61.75v0l-.07-.16h0a2.58,2.58,0,0,1-.2-1.18.88.88,0,0,1,.15-.42.93.93,0,0,1,.14-.14,1.88,1.88,0,0,1,2.28.35.41.41,0,0,1,.05.09h0l0,.06h0c.27.74-.57,2.34-1.3,2.39C19.4,62.73,19,62.29,18.75,61.75Z"/><path class="cls-25" d="M8.73,162A4.5,4.5,0,0,1,6,161.42a1.26,1.26,0,0,1-.48-1.06.5.5,0,0,1,.49-.45.47.47,0,0,1,.44.49.38.38,0,0,0,.14.31c1,.84,5.59.17,8.23-.45a10,10,0,0,0,3.24-1.07.47.47,0,0,1,.34-.45.47.47,0,0,1,.57.33.72.72,0,0,1-.09.58c-.48.77-2.86,1.32-3.86,1.52A32.18,32.18,0,0,1,8.73,162Zm9.35-2.72h0Z"/><path d="M9,157.6a4.9,4.9,0,0,0,2.8-2c1.16-1.24,3.51,1.28,3.51,1.28a1.84,1.84,0,0,0,2.32-.1A.28.28,0,0,1,18,157c.16.73.51,1.81.51,1.81.2.76-3.59,1.52-3.59,1.52S5.88,162.41,6,160C6,160,5.76,159,9,157.6Z"/><path class="cls-25" d="M30.72,162a31.56,31.56,0,0,1-6.31-.87c-1-.19-3.36-.74-3.84-1.51a.75.75,0,0,1-.1-.57.47.47,0,0,1,.92.11,9.73,9.73,0,0,0,3.22,1.06c2.66.63,7.23,1.3,8.24.46a.33.33,0,0,0,.14-.31.48.48,0,0,1,.44-.49.46.46,0,0,1,.49.45,1.25,1.25,0,0,1-.47,1.06A4.55,4.55,0,0,1,30.72,162Z"/><path d="M30.5,157.6a4.9,4.9,0,0,1-2.79-2c-1.16-1.24-3.51,1.28-3.51,1.28a1.84,1.84,0,0,1-2.32-.1.28.28,0,0,0-.44.16c-.17.73-.52,1.81-.52,1.81-.2.76,3.59,1.52,3.59,1.52s9.07,2.13,9-.33C33.46,160,33.7,159,30.5,157.6Z"/><path class="cls-6" d="M18.31,51.66l0,0-.16-.26v0a4.74,4.74,0,0,1-.7-2,1.6,1.6,0,0,1,.14-.79,1.54,1.54,0,0,1,.21-.29,2.92,2.92,0,0,1,2.07-.73,3.06,3.06,0,0,1,2.1.69,1,1,0,0,1,.13.15h0l.06.09h0c.69,1.23-.34,4.33-1.63,4.63a1.35,1.35,0,0,1-.66,0A3.47,3.47,0,0,1,18.31,51.66Z"/><path class="cls-4" d="M19.84,53a1.35,1.35,0,0,0,.66,0c1.29-.3,2.32-3.4,1.63-4.63h0l-.06-.09h0a1,1,0,0,0-.13-.15,3.06,3.06,0,0,0-2.1-.69Z"/></g></g></svg>