<svg viewBox="247.70994567871094 95 80.28007507324219 179.44000244140625" width="80.28007507324219" height="179.44000244140625" xmlns="http://www.w3.org/2000/svg">
  <defs>
    <clipPath id="clip-path-2">
      <path class="cls-1" d="M287.26,179.33c16.29,0,40.73-26.77,40.73-64C328,100.18,316.93,95,304.71,95c-25.6,0-57,16.87-57,38.4C247.68,150.23,270.38,179.33,287.26,179.33Z"/>
    </clipPath>
    <style>.cls-1,.cls-7{fill:none;}.cls-2{clip-path:url(#clip-path);}.cls-3{fill:#f2f2f2;}.cls-4{fill:#fff;}.cls-5{clip-path:url(#clip-path-2);}.cls-6{clip-path:url(#clip-path-3);}.cls-7{stroke:#000;stroke-linecap:round;stroke-linejoin:round;stroke-width:10.55px;}</style>
  </defs>
  <path d="M287.26,179.33c16.29,0,40.73-26.77,40.73-64C328,100.18,316.93,95,304.71,95c-25.6,0-57,16.87-57,38.4C247.68,150.23,270.38,179.33,287.26,179.33Z" transform="matrix(0.9999999999999999, 0, 0, 0.9999999999999999, -3.552713678800501e-15, -3.552713678800501e-15)"/>
  <path class="cls-4" d="M287.84,166.94a3.37,3.37,0,0,1-3.28-2.62c-1.39-2.47-11.19-12.41-19.71-20.44a3.36,3.36,0,0,1,4.61-4.89c21.74,20.48,21.74,23.15,21.74,24.59A3.36,3.36,0,0,1,287.84,166.94Zm-3.36-3.36Z" transform="matrix(0.9999999999999999, 0, 0, 0.9999999999999999, -3.552713678800501e-15, -3.552713678800501e-15)"/>
  <path d="M287.84,274.44a3.36,3.36,0,0,1-3.36-3.36V179.33a3.36,3.36,0,0,1,6.72,0v91.75A3.37,3.37,0,0,1,287.84,274.44Z" transform="matrix(0.9999999999999999, 0, 0, 0.9999999999999999, -3.552713678800501e-15, -3.552713678800501e-15)"/>
  <g class="cls-5" transform="matrix(0.9999999999999999, 0, 0, 0.9999999999999999, -3.552713678800501e-15, -3.552713678800501e-15)">
    <path class="cls-4" d="M287.84,274.44a3.36,3.36,0,0,1-3.36-3.36V123.72a3.36,3.36,0,0,1,6.72,0V271.08A3.37,3.37,0,0,1,287.84,274.44Z"/>
  </g>
</svg>